<svg xmlns="http://www.w3.org/2000/svg" version="1.1" xmlns:xlink="http://www.w3.org/1999/xlink" xmlns:svgjs="http://svgjs.dev/svgjs" width="100%" height="100%" viewBox="0 0 1000 600"><rect width="1000" height="600" x="0" y="0" fill="#774ad9"/><g><rect width="333.3333333333333" height="333.3333333333333" rx="13.333333333333334" ry="13.333333333333334" y="246.28847470147292" fill="#ffffff" transform="matrix(0.557870667149485,0,0,0.5578706671494851,0,69.62442657198135)" x="224.0663299560547"/><path d="M451.5587336946145 337.9551422790483L451.5587336946145 487.95514183539285L431.14780140375314 487.95514183539285L431.14780140375314 419.71517305098877L350.31818349977215 419.71517305098877L350.31818349977215 487.95514183539285L329.9072512089108 487.95514183539285L329.9072512089108 337.9551422790483L350.31818349977215 337.9551422790483L350.31818349977215 404.8576425657606L431.14780140375314 404.8576425657606L431.14780140375314 337.9551422790483L451.5587336946145 337.9551422790483Z " fill="#774ad9" transform="matrix(0.557870667149485,0,0,0.5578706671494851,0,69.62442657198135)"/><path d="M761.2167697529792 337.9551422747897L761.2167697529792 486.5153261360206L741.0017573337925 486.5153261360206L741.0017573337925 418.93037720748623L660.9480044486943 418.93037720748623L660.9480044486943 486.5153261360206L640.7329920295076 486.5153261360206L640.7329920295076 337.9551422747897L660.9480044486943 337.9551422747897L660.9480044486943 404.2154607599016L741.0017573337925 404.2154607599016L741.0017573337925 337.9551422747897L761.2167697529792 337.9551422747897ZM836.1447787483122 379.8537791265228L836.1447787483122 379.8537791265228Q845.5899697361943 379.8537791265228 853.5665487107166 382.99257735115435Q861.543127685239 386.1601718897733 867.359983110703 392.12100888517455Q873.176838536167 398.08184588057577 876.4308220167483 406.83592533275913Q879.6848054973296 415.61880109893 879.6848054973296 426.7917709260588L879.6848054973296 426.7917709260588Q879.6848054973296 431.1688106521505 878.7633234497314 432.6086263515228Q877.8418414021331 434.04844205089506 875.250173143263 434.04844205089506L875.250173143263 434.04844205089506L805.361519095733 434.04844205089506Q805.5630932936451 444.01196669055116 808.068372610553 451.3838230713372Q810.5448556134733 458.72688313813575 814.8930990255775 463.65105282998894Q819.2701387516692 468.5752225218421 825.2597720610578 471.02290921077497Q831.278201684434 473.44179958572033 838.7364470071823 473.44179958572033L838.7364470071823 473.44179958572033Q845.705154992144 473.44179958572033 850.7157136259596 471.8580023164109Q855.7550685737625 470.2454087331139 859.3834041361806 468.37364832392996Q863.0117396985987 466.501887914746 865.4306300735442 464.8892943314491Q867.878316762477 463.3054970621396 869.6348919157111 463.3054970621396L869.6348919157111 463.3054970621396Q871.9098007207194 463.3054970621396 873.176838536167 465.06207221537375L873.176838536167 465.06207221537375L878.3601750539071 471.800409688436Q874.9334136894012 475.9470789026281 870.1532255674853 478.9994881852973Q865.4018337595567 482.05189746796657 859.9593304159296 484.0388431331003Q854.5168270723024 485.99699248424656 848.6999716468384 486.97606715981965Q842.8831162213744 487.95514183539285 837.1814460518602 487.95514183539285L837.1814460518602 487.95514183539285Q826.2964393646058 487.95514183539285 817.1392115165982 484.2980099589873Q807.9531873546031 480.6120817685943 801.2724425095158 473.4993922136953Q794.5916976644285 466.41549897278367 790.8481768460605 455.93364068135355Q787.13345234168 445.45178238992344 787.13345234168 431.88871850183665L787.13345234168 431.88871850183665Q787.13345234168 420.8885265586325 790.5026210782112 411.3569466287881Q793.8717898147423 401.82536669894364 800.1781825779929 394.8278623999944Q806.5133716552308 387.83035810104514 815.641803189251 383.82767045679026Q824.7414384092838 379.8537791265228 836.1447787483122 379.8537791265228ZM836.5767234581239 393.4168430146096L836.5767234581239 393.4168430146096Q823.1864374539617 393.4168430146096 815.5266179333013 401.134255163245Q807.8667984126408 408.8804636258678 805.9950380034569 422.55871276990433L805.9950380034569 422.55871276990433L863.0981286405611 422.55871276990433Q863.0981286405611 416.13713475070404 861.3415534873269 410.7810203490392Q859.5849783340927 405.45370226136174 856.1582169695866 401.56619987305663Q852.7314556050807 397.6786974847515 847.8072859132276 395.5477702496805Q842.8831162213744 393.4168430146096 836.5767234581239 393.4168430146096ZM921.669831291025 486.5153261360206L903.24019033906 486.5153261360206L903.24019033906 381.4951690238072L913.8084375724524 381.4951690238072Q916.8032542271468 381.4951690238072 917.9551067866446 382.647021583305Q919.078163032155 383.7700778288154 919.5101077419666 386.592116599585L919.5101077419666 386.592116599585L920.7483492434268 402.948422944454Q926.133259959079 391.9770273152373 934.081042619614 385.814616121924Q942.0000289661615 379.62340861462326 952.6834614555038 379.62340861462326L952.6834614555038 379.62340861462326Q957.031704867608 379.62340861462326 960.5448551740764 380.6312796041838Q964.0868017945321 381.61035427975696 967.0816184492264 383.3669294329911L967.0816184492264 383.3669294329911L964.6915243882685 397.1603638329775Q963.9716165385823 399.7520320918476 961.495133535662 399.7520320918476L961.495133535662 399.7520320918476Q960.0265215223022 399.7520320918476 957.031704867608 398.77295741627444Q954.0368882129136 397.7650864267138 948.6231811832739 397.7650864267138L948.6231811832739 397.7650864267138Q939.0052123114672 397.7650864267138 932.5260416642919 403.3803676542657Q926.0468710171168 408.9668525678301 921.669831291025 419.65028505717237L921.669831291025 419.65028505717237L921.669831291025 486.5153261360206ZM1029.2816566621086 379.8537791265228L1029.2816566621086 379.8537791265228Q1040.8001822570868 379.8537791265228 1050.072595361044 383.683688886853Q1059.3450084650017 387.51359864718324 1065.8241791121768 394.5686955741074Q1072.303349759352 401.6237925010315 1075.7877037518329 411.6161134546751Q1079.2432614303261 421.60843440831866 1079.2432614303261 433.9620531089327L1079.2432614303261 433.9620531089327Q1079.2432614303261 446.4020607515091 1075.7877037518329 456.3367890771778Q1072.303349759352 466.3003137168339 1065.8241791121768 473.35541064375803Q1059.3450084650017 480.41050757068217 1050.072595361044 484.1828247030375Q1040.8001822570868 487.95514183539285 1029.2816566621086 487.95514183539285L1029.2816566621086 487.95514183539285Q1017.7919273811177 487.95514183539285 1008.4907179631729 484.1828247030375Q999.2183048592154 480.41050757068217 992.6815415840654 473.35541064375803Q986.1735746229027 466.3003137168339 982.631628002447 456.3367890771778Q979.1184776959786 446.4020607515091 979.1184776959786 433.9620531089327L979.1184776959786 433.9620531089327Q979.1184776959786 421.60843440831866 982.631628002447 411.6161134546751Q986.1735746229027 401.6237925010315 992.6815415840654 394.5686955741074Q999.2183048592154 387.51359864718324 1008.4907179631729 383.683688886853Q1017.7919273811177 379.8537791265228 1029.2816566621086 379.8537791265228ZM1029.2816566621086 473.55698484167016L1029.2816566621086 473.55698484167016Q1044.831666215329 473.55698484167016 1052.520282049977 463.1327191782149Q1060.1801015706374 452.70845351475964 1060.1801015706374 434.04844205089506L1060.1801015706374 434.04844205089506Q1060.1801015706374 415.3020416450681 1052.520282049977 404.82018335363796Q1044.831666215329 394.3671213761953 1029.2816566621086 394.3671213761953L1029.2816566621086 394.3671213761953Q1021.4202629435359 394.3671213761953 1015.603407518072 397.0451785770277Q1009.786552092608 399.7520320918476 1005.8990497043028 404.82018335363796Q1002.0115473159977 409.9171309294158 1000.1109905928264 417.31778362418925Q998.1816375556674 424.71843631896274 998.1816375556674 434.04844205089506L998.1816375556674 434.04844205089506Q998.1816375556674 443.3784477828274 1000.1109905928264 450.7503041636134Q1002.0115473159977 458.12216054439943 1005.8990497043028 463.1327191782149Q1009.786552092608 468.17207412601783 1015.603407518072 470.85013132685026Q1021.4202629435359 473.55698484167016 1029.2816566621086 473.55698484167016ZM1120.5083793743356 486.5153261360206L1102.0499421083832 486.5153261360206L1102.0499421083832 381.4951690238072L1113.050134051587 381.4951690238072Q1116.9952290678673 381.4951690238072 1118.0318963714153 385.3250787841374L1118.0318963714153 385.3250787841374L1119.4717120707874 396.7284191231658Q1126.3252347997995 389.1837848584551 1134.762554798121 384.5187819924889Q1143.2286711104298 379.8537791265228 1154.3152519955966 379.8537791265228L1154.3152519955966 379.8537791265228Q1162.9253498778426 379.8537791265228 1169.4909094669802 382.70461421127993Q1176.0852653701052 385.55544929603695 1180.4911014101842 390.7675821277646Q1184.8969374502635 396.00851127347966 1187.1718462552717 403.3803676542657Q1189.4467550602799 410.72342772106424 1189.4467550602799 419.65028505717237L1189.4467550602799 419.65028505717237L1189.4467550602799 486.5153261360206L1170.9883177943275 486.5153261360206L1170.9883177943275 419.65028505717237Q1170.9883177943275 407.7286110663699 1165.5458144507002 401.134255163245Q1160.1033111070728 394.5686955741074 1148.930341279944 394.5686955741074L1148.930341279944 394.5686955741074Q1140.7233917935223 394.5686955741074 1133.6394985526108 398.51379059038743Q1126.5268089977117 402.43008929268 1120.5083793743356 409.1684267657422L1120.5083793743356 409.1684267657422L1120.5083793743356 486.5153261360206ZM1349.0071308647148 412.27842867638634L1349.0071308647148 412.27842867638634Q1349.0071308647148 428.98029078910463 1343.7086090910248 442.65853993314124Q1338.4100873173347 456.3367890771778 1328.792118445528 466.0987395189218Q1319.1453532597338 475.83189364667834 1305.6686783136092 481.1880080483432Q1292.192003367485 486.5153261360206 1275.8069007086287 486.5153261360206L1275.8069007086287 486.5153261360206L1220.230014712859 486.5153261360206L1220.230014712859 337.9551422747897L1275.8069007086287 337.9551422747897Q1292.192003367485 337.9551422747897 1305.6686783136092 343.31125667645455Q1319.1453532597338 348.638574764132 1328.792118445528 358.42932151986344Q1338.4100873173347 368.2200682755949 1343.7086090910248 381.92711373361885Q1349.0071308647148 395.60536287765547 1349.0071308647148 412.27842867638634ZM1328.3601737357167 412.27842867638634L1328.3601737357167 412.27842867638634Q1328.3601737357167 398.6001795323498 1324.645449231336 387.83035810104514Q1320.9019284129681 377.03174035575313 1314.048405683956 369.5734950330048Q1307.2236792689314 362.1152497102564 1297.4617288271875 358.1701546939764Q1287.7285746994312 354.2250596776964 1275.8069007086287 354.2250596776964L1275.8069007086287 354.2250596776964L1240.4450271320457 354.2250596776964L1240.4450271320457 470.2454087331139L1275.8069007086287 470.2454087331139Q1287.7285746994312 470.2454087331139 1297.4617288271875 466.3003137168339Q1307.2236792689314 462.3552187005539 1314.048405683956 454.9545660057804Q1320.9019284129681 447.5251169970195 1324.645449231336 436.7552955657149Q1328.3601737357167 425.9854741344103 1328.3601737357167 412.27842867638634ZM1415.0370788379269 379.8537791265228L1415.0370788379269 379.8537791265228Q1424.4534735118218 379.8537791265228 1432.4588488003315 382.99257735115435Q1440.435427774854 386.1601718897733 1446.2234868863306 392.12100888517455Q1452.0403423117946 398.08184588057577 1455.2943257923757 406.83592533275913Q1458.5771055869445 415.61880109893 1458.5771055869445 426.7917709260588L1458.5771055869445 426.7917709260588Q1458.5771055869445 431.1688106521505 1457.6268272253587 432.6086263515228Q1456.7053451777606 434.04844205089506 1454.1136769188906 434.04844205089506L1454.1136769188906 434.04844205089506L1384.2538191853478 434.04844205089506Q1384.45539338326 444.01196669055116 1386.9318763861802 451.3838230713372Q1389.4371557030881 458.72688313813575 1393.7853991151924 463.65105282998894Q1398.1336425272966 468.5752225218421 1404.1520721506727 471.02290921077497Q1410.1705017740487 473.44179958572033 1417.6287470967973 473.44179958572033L1417.6287470967973 473.44179958572033Q1424.5686587677715 473.44179958572033 1429.6080137155745 471.8580023164109Q1434.61857234939 470.2454087331139 1438.2469079118082 468.37364832392996Q1441.8752434742264 466.501887914746 1444.322930163159 464.8892943314491Q1446.7418205381045 463.3054970621396 1448.527192005326 463.3054970621396L1448.527192005326 463.3054970621396Q1450.8021008103342 463.3054970621396 1452.0403423117946 465.06207221537375L1452.0403423117946 465.06207221537375L1457.2236788295345 471.800409688436Q1453.7969174650289 475.9470789026281 1449.0455256571 478.9994881852973Q1444.2653375351842 482.05189746796657 1438.822834191557 484.0388431331003Q1433.3803308479296 485.99699248424656 1427.5634754224657 486.97606715981965Q1421.7754163109894 487.95514183539285 1416.073746141475 487.95514183539285L1416.073746141475 487.95514183539285Q1405.188739454221 487.95514183539285 1396.0027152922257 484.2980099589873Q1386.8454874442182 480.6120817685943 1380.1359462851433 473.4993922136953Q1373.455201440056 466.41549897278367 1369.7404769356754 455.93364068135355Q1365.9969561173075 445.45178238992344 1365.9969561173075 431.88871850183665L1365.9969561173075 431.88871850183665Q1365.9969561173075 420.8885265586325 1369.3661248538388 411.3569466287881Q1372.7352935903696 401.82536669894364 1379.0704826676078 394.8278623999944Q1385.3768754308585 387.83035810104514 1394.5053069648784 383.82767045679026Q1403.6337384988988 379.8537791265228 1415.0370788379269 379.8537791265228ZM1415.4402272337516 393.4168430146096L1415.4402272337516 393.4168430146096Q1402.0787375435766 393.4168430146096 1394.3901217089287 401.134255163245Q1386.730302188268 408.8804636258678 1384.8585417790846 422.55871276990433L1384.8585417790846 422.55871276990433L1441.990428730176 422.55871276990433Q1441.990428730176 416.13713475070404 1440.2338535769418 410.7810203490392Q1438.4484821097203 405.45370226136174 1435.0505170592019 401.56619987305663Q1431.6237556946958 397.6786974847515 1426.6995860028424 395.5477702496805Q1421.7754163109894 393.4168430146096 1415.4402272337516 393.4168430146096ZM1508.9418587509867 486.5153261360206L1466.1505361656427 381.4951690238072L1481.2686010090515 381.4951690238072Q1483.4571208720977 381.4951690238072 1484.8969365714697 382.647021583305Q1486.3655485848294 383.7700778288154 1486.9702711785658 385.3250787841374L1486.9702711785658 385.3250787841374L1513.6068616169528 452.9388240266593Q1515.0754736303124 456.6535485310397 1515.9105667359481 460.3970693494076Q1516.7168635275966 464.1117938537881 1517.4655676912703 467.7401294162062L1517.4655676912703 467.7401294162062Q1518.2718644829188 464.1117938537881 1519.2221428445046 460.3970693494076Q1520.1436248921027 456.6535485310397 1521.6122369054624 452.9388240266593L1521.6122369054624 452.9388240266593L1548.5655867977111 385.3250787841374Q1549.170309391448 383.683688886853 1550.5813287768328 382.5894289553301Q1551.96355184823 381.4951690238072 1554.036886455326 381.4951690238072L1554.036886455326 381.4951690238072L1568.463839763036 381.4951690238072L1525.6437208637049 486.5153261360206L1508.9418587509867 486.5153261360206Z " fill="#ffffff" transform="matrix(0.557870667149485,0,0,0.5578706671494851,0,69.62442657198135)"/></g></svg>