<?xml version="1.0" standalone="no"?>
<!DOCTYPE svg PUBLIC "-//W3C//DTD SVG 20010904//EN"
 "http://www.w3.org/TR/2001/REC-SVG-20010904/DTD/svg10.dtd">
<svg version="1.0" xmlns="http://www.w3.org/2000/svg"
 width="652.000000pt" height="652.000000pt" viewBox="0 0 652.000000 652.000000"
 preserveAspectRatio="xMidYMid meet">

<g transform="translate(0.000000,652.000000) scale(0.100000,-0.100000)"
fill="#000000" stroke="none">
<path d="M4173 5393 c-26 -3 -34 -10 -39 -31 -4 -15 -15 -61 -25 -102 -10 -41
-23 -101 -29 -132 -6 -32 -15 -58 -19 -58 -3 0 -7 -8 -8 -17 -6 -82 -104 -483
-135 -553 -6 -14 -11 -28 -10 -32 3 -15 -134 -282 -166 -322 -20 -26 -93 -51
-78 -28 10 17 -6 15 -30 -3 -18 -13 -15 -14 28 -15 41 0 47 -2 41 -17 -11 -33
-86 -123 -176 -215 -66 -67 -86 -93 -76 -99 19 -11 55 -1 117 33 60 33 77 46
137 106 41 40 44 41 48 20 2 -13 3 -9 1 9 -1 17 0 33 4 35 11 5 66 91 79 123
6 17 12 42 12 56 1 15 20 51 46 85 53 68 69 119 61 195 -3 34 -1 60 6 67 5 5
19 43 29 84 10 40 32 120 49 178 17 58 35 123 41 145 31 125 24 115 79 115 85
0 80 -11 80 196 0 204 7 186 -67 177z"/>
<path d="M3890 5384 c0 -28 -24 -152 -32 -161 -6 -7 -5 -14 2 -18 6 -4 7 -12
1 -22 -6 -11 -2 -27 11 -50 11 -19 23 -32 25 -29 3 2 6 37 8 76 2 39 8 77 13
83 5 7 10 32 11 56 1 25 4 48 6 52 3 4 -2 10 -11 13 -20 8 -34 8 -34 0z"/>
<path d="M3981 5024 c0 -11 3 -14 6 -6 3 7 2 16 -1 19 -3 4 -6 -2 -5 -13z"/>
<path d="M3951 4914 c0 -11 3 -14 6 -6 3 7 2 16 -1 19 -3 4 -6 -2 -5 -13z"/>
<path d="M3941 4864 c0 -11 3 -14 6 -6 3 7 2 16 -1 19 -3 4 -6 -2 -5 -13z"/>
<path d="M3044 4687 c-92 -63 -208 -165 -252 -222 -39 -49 -23 -48 26 1 27 27
74 72 106 99 32 28 64 55 70 60 29 26 103 83 121 93 14 8 15 11 5 11 -8 0 -42
-19 -76 -42z"/>
<path d="M3140 4591 c-159 -161 -275 -263 -320 -279 -22 -8 -22 -8 5 -26 70
-46 170 -5 313 128 l42 40 0 -35 c0 -23 -11 -50 -32 -80 l-31 -44 42 40 c43
40 43 40 37 97 -3 33 -1 60 4 63 6 4 26 31 46 62 40 62 60 164 33 162 -8 -1
-70 -58 -139 -128z"/>
<path d="M3520 4612 c-84 -38 -305 -226 -337 -287 -12 -22 2 -13 58 39 83 77
263 226 294 244 21 12 10 15 -15 4z"/>
<path d="M3585 4506 c-55 -56 -152 -149 -215 -206 -107 -97 -142 -134 -109
-115 11 6 12 5 2 -6 -20 -20 -16 -28 20 -34 21 -4 47 -1 69 8 113 47 275 214
329 337 14 34 24 120 13 119 -5 -1 -54 -47 -109 -103z"/>
<path d="M3824 4457 c-38 -41 -72 -102 -77 -141 -4 -21 -5 -37 -3 -35 7 7 106
199 104 199 -2 0 -12 -10 -24 -23z"/>
<path d="M3596 4268 c-7 -36 -42 -77 -159 -183 -43 -38 -99 -97 -125 -130 -76
-97 -200 -216 -406 -390 -190 -160 -184 -154 -161 -154 11 -1 43 20 70 45 28
26 82 73 120 106 94 81 209 186 306 281 44 42 86 77 93 77 8 0 51 35 98 78 90
83 198 175 253 217 17 14 15 14 -20 0 -21 -9 -48 -23 -59 -33 -18 -16 -19 -16
-12 11 11 44 18 107 13 107 -3 0 -8 -15 -11 -32z"/>
<path d="M2859 4079 l-44 -41 42 32 c40 29 60 50 50 50 -2 0 -24 -18 -48 -41z"/>
<path d="M2781 4010 c-13 -11 -19 -20 -14 -20 6 0 18 9 28 20 23 25 17 25 -14
0z"/>
<path d="M2729 3963 c-13 -16 -12 -17 4 -4 16 13 21 21 13 21 -2 0 -10 -8 -17
-17z"/>
<path d="M2646 3890 c-26 -22 -58 -49 -70 -60 -11 -11 -53 -46 -91 -78 -39
-32 -80 -67 -92 -77 -26 -25 -68 -62 -112 -98 -18 -15 -31 -30 -28 -33 4 -4
129 98 182 149 7 7 39 35 71 62 32 28 78 69 103 92 25 23 57 51 71 62 14 11
23 20 20 21 -3 0 -27 -18 -54 -40z"/>
</g>
</svg>
